PathFileType	4	(X/Y/Z)	Kaydara	
DataRate	CameraRate	NumFrames	NumMarkers	Units	OrigDataRate	OrigDataStartFrame	OrigNumFrames	
60.00	60.00	4	74	mm	60.00	1626	67	
Frame#	Time	Y_rasi			Y_rpsi			Y_lpsi			Y_fneck			Y_bneck			Y_fhead			Y_rhead			Y_rshld			Y_relbtop			Y_relbext			Y_relblow			Y_rwrext			Y_rwrtop			Y_rwrlow			Y_lshld			Y_lelbext			Y_lelblow			Y_lelbtop			Y_lwrext			Y_lwrtop			Y_lwrlow			Y_rtopleg			Y_ltopleg			Y_rkneefr			Y_rkneebk			Y_rkneeis			Y_lkneefr			Y_lknssbk			Y_lkneeis			Y_rankfr			Y_rankis			Y_rankbk			Y_lankfr			Y_lankbk			Y_lankis			Y_lhead			Y_lasi			D_rpsi			D_lpsi			D_fneck			D_bneck			D_fhead			D_rhead			D_lhead			D_rshld			D_relbtop			D_relbext			D_relblow			D_rwrext			D_rwrtop			D_rwrlow			D_lshld			D_lelbext			D_lelblow			D_lelbtop			D_lwrext			D_lwrtop			D_lwrlow			D_rtopleg			D_ltopleg			D_rkneefr			D_rkneebk			D_rkneeis			D_lkneefr			D_lknssbk			D_lkneeis			D_rankfr			D_rankis			D_rankbk			D_lankfr			D_lankbk			D_lankis			D_lasi			D_rasi			
		X1	Y1	Z1	X2	Y2	Z2	X3	Y3	Z3	X4	Y4	Z4	X5	Y5	Z5	X6	Y6	Z6	X7	Y7	Z7	X8	Y8	Z8	X9	Y9	Z9	X10	Y10	Z10	X11	Y11	Z11	X12	Y12	Z12	X13	Y13	Z13	X14	Y14	Z14	X15	Y15	Z15	X16	Y16	Z16	X17	Y17	Z17	X18	Y18	Z18	X19	Y19	Z19	X20	Y20	Z20	X21	Y21	Z21	X22	Y22	Z22	X23	Y23	Z23	X24	Y24	Z24	X25	Y25	Z25	X26	Y26	Z26	X27	Y27	Z27	X28	Y28	Z28	X29	Y29	Z29	X30	Y30	Z30	X31	Y31	Z31	X32	Y32	Z32	X33	Y33	Z33	X34	Y34	Z34	X35	Y35	Z35	X36	Y36	Z36	X37	Y37	Z37	X38	Y38	Z38	X39	Y39	Z39	X40	Y40	Z40	X41	Y41	Z41	X42	Y42	Z42	X43	Y43	Z43	X44	Y44	Z44	X45	Y45	Z45	X46	Y46	Z46	X47	Y47	Z47	X48	Y48	Z48	X49	Y49	Z49	X50	Y50	Z50	X51	Y51	Z51	X52	Y52	Z52	X53	Y53	Z53	X54	Y54	Z54	X55	Y55	Z55	X56	Y56	Z56	X57	Y57	Z57	X58	Y58	Z58	X59	Y59	Z59	X60	Y60	Z60	X61	Y61	Z61	X62	Y62	Z62	X63	Y63	Z63	X64	Y64	Z64	X65	Y65	Z65	X66	Y66	Z66	X67	Y67	Z67	X68	Y68	Z68	X69	Y69	Z69	X70	Y70	Z70	X71	Y71	Z71	X72	Y72	Z72	X73	Y73	Z73	X74	Y74	Z74	

42	27.083	-573.54256	1089.35966	-133.53787	-567.10682	1070.55054	-310.97733	-341.14983	1056.39091	-239.91034	-492.28630	1428.29498	-152.92211	-409.31438	1481.39740	-229.53283	-538.04329	1624.59793	-77.02683	-506.31001	1575.47302	-246.82945	-629.51466	1420.75333	-295.60446	-637.41371	1143.46413	-381.48026	-652.16743	1158.95081	-439.77329	-586.30642	1145.85976	-460.36812	-668.34953	955.45578	-267.69558	-684.38210	986.52199	-242.28800	-648.13057	1007.23907	-226.69540	-270.53507	1381.06903	-104.35492	-170.20874	1079.46594	-160.14269	-215.93058	1068.51677	-200.34025	-231.51682	1106.20369	-119.46939	-387.76215	946.31866	-56.03144	-379.24263	960.39063	-16.56793	-395.02804	1005.27374	-22.19486	-643.88741	916.39771	-266.99810	-307.16471	903.55011	-130.68800	-643.01666	413.92365	-282.97916	-621.73031	460.44128	-357.32063	-547.35661	422.68883	-272.81004	-345.95276	474.15726	-118.82003	-283.22346	496.18534	-210.98446	-402.34943	467.51141	-194.86397	-633.31409	143.04501	-331.81442	-562.54150	135.47856	-342.23286	-602.98527	137.44743	-396.95446	-277.53389	132.45297	-170.97197	-260.95749	130.69961	-238.35747	-334.11667	125.18960	-207.83667	-386.88339	1563.97141	-152.78141	-420.42168	1075.11749	-84.15611	-993.11600	1172.77931	577.80701	-1125.68527	1176.86562	458.49590	-987.06177	1601.97754	420.59750	-1083.17543	1651.17371	481.02062	-948.66249	1773.89557	279.47750	-997.77336	1802.24106	449.29871	-1109.53957	1775.12100	348.61370	-898.59520	1565.24399	582.14630	-857.39166	1197.21451	586.46217	-823.18176	1216.49521	636.07990	-895.30540	1202.61589	669.99832	-777.40997	925.64186	592.11624	-745.88638	940.39391	568.13652	-766.98441	948.23692	524.89979	-1213.15758	1540.37659	352.76222	-1199.38316	1168.80783	294.90004	-1183.05679	1149.36539	368.58101	-1137.07176	1177.73262	303.24692	-1134.40842	923.76923	264.18840	-1103.75511	942.47787	236.46469	-1071.38016	942.38815	271.55523	-873.39264	1037.18643	577.44831	-1134.74846	1026.25694	339.81155	-754.74854	572.14424	415.32822	-786.14311	567.78297	525.10082	-868.85986	546.84334	436.55296	-1021.02234	468.10944	370.27225	-1115.61844	514.42120	414.29615	-1030.36125	503.45707	482.20379	-787.77657	203.65057	524.40201	-860.31219	196.81744	496.94847	-848.70216	206.40135	581.85287	-1055.50095	158.71554	411.65257	-1076.48018	152.25852	489.18037	-993.17207	165.52443	449.13624	-1030.00511	1187.95128	327.71381	-873.90839	1187.05986	460.27599 
43	27.100	-573.20637	1089.32755	-133.58793	-565.72903	1070.47935	-311.78116	-340.61676	1057.03941	-238.58877	-492.53735	1427.13196	-152.60374	-409.22127	1482.00211	-228.50851	-540.82699	1623.19458	-76.17762	-507.19097	1575.62759	-246.19404	-627.85995	1422.56454	-297.59850	-637.61398	1146.13258	-384.23615	-650.38490	1161.72081	-443.28091	-583.87043	1147.32414	-461.33976	-671.84273	957.95906	-270.66671	-688.96416	988.77609	-245.69933	-653.82820	1010.50140	-229.80307	-271.63040	1381.49796	-101.86909	-169.09138	1080.80711	-158.34026	-214.39379	1069.88983	-198.95195	-231.16472	1106.76025	-118.30954	-387.26288	945.79521	-56.33219	-378.78265	959.93263	-16.95674	-394.48956	1004.68483	-22.40755	-643.63716	916.77727	-269.25507	-306.99629	903.64708	-129.81098	-642.74483	414.07055	-283.79536	-621.23676	460.34637	-357.95170	-547.22519	422.56058	-273.50048	-345.71552	474.13746	-118.80826	-282.68492	496.27987	-210.72771	-401.84532	467.63351	-195.09319	-633.42491	143.15253	-331.96297	-562.49241	135.45496	-342.43706	-602.92133	137.32309	-397.14214	-277.44917	132.46718	-170.92672	-260.77005	130.69852	-238.36002	-333.99204	125.23207	-207.88568	-388.08300	1564.62952	-151.70853	-421.01532	1075.35904	-83.63180	-993.00743	1173.28941	578.19714	-1125.90500	1177.09999	459.08314	-987.09801	1601.74713	420.14763	-1083.02246	1651.51108	480.28358	-948.02971	1772.88193	278.19708	-997.63649	1802.42844	447.66361	-1109.22661	1774.90433	346.91830	-898.55316	1566.09512	581.78848	-857.79785	1198.25424	587.10716	-823.50113	1217.38724	636.70567	-895.79865	1203.80310	670.66254	-778.90556	925.68848	594.90639	-746.73676	940.41740	571.62418	-766.73264	948.46344	527.95364	-1213.33672	1540.49667	352.72774	-1198.94264	1168.88985	294.75582	-1182.78656	1149.43550	368.46100	-1136.72501	1178.02620	303.21053	-1132.88269	924.23332	263.68313	-1101.64650	943.10783	236.60690	-1069.94873	942.89764	271.98280	-873.35266	1037.71049	578.36964	-1134.91898	1026.42853	340.72781	-752.72675	573.33168	414.66843	-784.20364	568.82813	524.38183	-866.76796	547.80769	435.52471	-1021.45561	467.77977	372.46986	-1115.92789	514.47109	415.39467	-1030.66895	503.44265	483.25645	-786.68564	204.80024	524.07310	-859.15260	198.11380	496.43295	-847.84180	207.76407	581.40278	-1055.60257	158.73953	411.84631	-1076.40511	151.91090	489.38274	-993.26233	165.59849	449.26174	-1030.00679	1187.99744	328.33508	-874.00513	1187.38121	460.87051 
44	27.117	-573.17371	1089.05861	-134.27762	-564.51283	1070.71449	-312.48432	-339.80610	1057.59842	-237.76716	-493.56411	1427.12921	-152.59372	-409.07669	1482.48520	-227.41434	-543.41057	1621.96503	-75.48247	-508.09391	1575.78461	-245.36425	-626.08715	1424.42566	-299.62347	-638.05714	1148.71910	-386.22780	-649.64317	1164.41147	-445.70057	-583.12408	1148.35022	-462.33238	-674.53201	960.25215	-272.85416	-692.58774	990.47363	-247.98256	-658.03200	1013.09097	-231.24258	-273.01498	1381.78940	-99.18635	-168.09872	1081.94130	-156.09500	-213.02601	1070.89943	-197.20066	-230.44128	1107.30286	-115.96134	-386.85596	945.04311	-56.43606	-378.38066	959.26994	-17.22213	-394.07772	1003.84338	-22.34991	-642.43706	916.93909	-271.21334	-307.49741	903.84811	-128.65557	-642.40189	414.21600	-284.80795	-620.59608	460.26390	-358.93021	-546.87389	422.25437	-274.11139	-345.26764	474.22905	-118.56012	-282.17020	496.36520	-210.61073	-401.40858	467.72545	-195.39204	-633.31501	143.24689	-332.25594	-562.39277	135.43546	-342.67117	-602.82326	137.22453	-397.34947	-277.30869	132.48401	-170.98640	-260.61346	130.72617	-238.37521	-333.87726	125.29935	-207.91636	-389.82533	1565.28748	-149.80087	-421.64940	1075.32272	-83.06193	-993.43918	1173.93356	579.16039	-1125.96436	1177.40311	459.14146	-986.94946	1601.73248	419.44771	-1082.90138	1651.83960	479.43291	-947.22847	1771.84052	277.12610	-997.36176	1802.56805	446.15669	-1108.64380	1774.73709	345.00481	-898.57315	1566.67496	581.47057	-858.46786	1199.18930	587.72083	-824.15970	1218.23624	637.52056	-896.47995	1204.82445	671.07498	-780.33997	925.69016	597.50500	-747.66312	940.34302	574.81712	-766.71616	948.39066	530.88238	-1213.82545	1540.72311	352.87163	-1198.81729	1169.04724	294.75927	-1182.67296	1149.51500	368.38699	-1136.49399	1178.19092	303.26931	-1131.73508	924.59389	263.32285	-1100.11108	943.60916	236.92589	-1069.31152	943.00850	274.52724	-873.39165	1038.39622	579.45007	-1134.88159	1026.54457	341.73527	-750.31044	574.49425	414.05460	-782.52235	569.78687	523.86627	-864.54163	548.85693	434.40128	-1021.67656	468.01414	373.14667	-1116.07872	514.55456	416.36127	-1030.73120	503.53935	484.07066	-785.45563	205.97864	523.72070	-857.85591	199.36321	495.96802	-846.81992	209.17711	580.72426	-1055.61218	158.80821	412.05601	-1076.24840	151.79146	489.50531	-993.23662	165.65142	449.45526	-1029.94606	1188.02475	329.05430	-874.26567	1187.50412	461.98910 
45	27.133	-573.23376	1088.86261	-135.00656	-563.16334	1070.82489	-313.99857	-339.09988	1057.92877	-237.17497	-494.31190	1427.29874	-152.42064	-409.00333	1483.04642	-226.12261	-545.32581	1621.13144	-74.95331	-508.67348	1575.93414	-244.78004	-624.48532	1426.10153	-302.15513	-638.91151	1150.41855	-387.63016	-649.90692	1166.32523	-446.99978	-583.42480	1149.01367	-463.28510	-676.28067	961.30203	-274.60432	-694.50340	991.30913	-249.48389	-660.04250	1014.01611	-232.72633	-274.26046	1381.94229	-96.50097	-167.20510	1082.94075	-153.53200	-211.73552	1071.82083	-195.07507	-229.98058	1108.02902	-113.45541	-386.92516	944.32030	-56.38281	-378.40378	958.44925	-17.13212	-394.19304	1003.21854	-22.33341	-641.15517	917.27058	-273.18138	-307.05891	904.06464	-128.36329	-642.03918	414.37733	-285.77650	-619.86881	460.12840	-359.91470	-546.65771	422.18685	-274.82924	-345.19238	474.40186	-118.28087	-281.73861	496.37787	-210.61073	-400.96581	467.81033	-195.85125	-633.12668	143.24383	-332.30328	-562.35535	135.32960	-342.77615	-602.65663	137.14818	-397.53777	-277.12835	132.49858	-171.04404	-260.46946	130.68550	-238.37931	-333.79387	125.35860	-207.98239	-390.95081	1565.81879	-148.54206	-422.07516	1075.14496	-83.15618	-993.94363	1174.47983	580.24734	-1125.89859	1177.45026	460.19981	-986.65810	1601.60172	418.70388	-1082.60475	1652.16766	478.38108	-946.41685	1770.92728	275.76469	-996.98524	1802.75330	444.44847	-1108.14659	1774.38232	343.35411	-898.67989	1567.40112	581.29345	-859.19823	1199.84764	588.13316	-824.71352	1218.67889	638.06549	-897.38686	1205.69839	671.35475	-781.99402	925.74829	599.95525	-748.86101	940.41412	578.04688	-767.06764	948.26790	533.76438	-1213.84232	1540.71274	352.63348	-1198.66959	1168.99811	294.77087	-1182.80685	1149.49928	368.50574	-1136.41922	1178.22227	303.43983	-1131.06651	924.68575	263.34862	-1099.04831	943.83827	237.43349	-1068.48305	943.25996	273.52245	-873.71048	1038.77205	580.90023	-1134.77631	1026.66435	342.59205	-747.74689	575.89359	413.50773	-780.32776	570.81718	522.87937	-862.05559	549.85508	433.28949	-1021.65131	468.06667	374.17664	-1116.17027	514.56379	417.18792	-1030.71350	503.55522	484.84211	-784.20944	207.14195	523.84808	-856.40732	200.70663	495.28740	-846.13235	210.59938	580.23266	-1055.51079	158.84828	412.25193	-1076.18958	151.70953	489.66812	-993.20366	165.62159	449.80968	-1029.74464	1187.93633	330.08747	-874.37454	1187.77321	463.14075 
